<?xml version="1.0" standalone="no"?>
<!DOCTYPE svg PUBLIC "-//W3C//DTD SVG 20010904//EN"
 "http://www.w3.org/TR/2001/REC-SVG-20010904/DTD/svg10.dtd">
<svg version="1.0" xmlns="http://www.w3.org/2000/svg"
 width="1000.000000pt" height="1000.000000pt" viewBox="0 0 1000.000000 1000.000000"
 preserveAspectRatio="xMidYMid meet">

<g transform="translate(0.000000,1000.000000) scale(0.100000,-0.100000)"
fill="#000000" stroke="none">
<path d="M4848 9265 c-192 -26 -432 -101 -613 -190 -278 -137 -520 -344 -729
-621 -165 -220 -288 -448 -512 -949 -218 -489 -343 -714 -679 -1225 -268 -406
-362 -588 -445 -855 -87 -278 -61 -635 67 -925 79 -178 160 -301 430 -656 188
-246 245 -371 288 -629 13 -79 6 -288 -14 -405 -11 -63 -42 -194 -70 -291 -78
-279 -86 -323 -86 -504 0 -187 16 -275 73 -417 39 -96 185 -338 204 -338 7 0
8 16 4 48 -50 330 -48 484 5 652 41 127 127 265 340 547 173 228 231 351 264
557 19 115 19 177 0 296 -37 228 -130 434 -345 760 -77 118 -161 256 -186 305
-138 280 -112 568 77 820 73 99 111 137 222 226 150 120 310 222 632 400 258
142 631 380 859 547 356 261 591 474 835 757 237 276 384 502 577 887 51 102
98 189 103 193 19 11 76 -28 152 -104 89 -90 139 -161 207 -296 104 -209 161
-408 209 -730 26 -174 26 -711 0 -910 -69 -527 -181 -921 -368 -1298 -162
-325 -322 -446 -593 -447 -77 0 -338 37 -466 66 -219 49 -480 174 -673 321
-92 69 -229 205 -317 314 -139 171 -242 343 -340 569 -36 83 -57 113 -45 65
17 -73 117 -330 168 -433 180 -359 432 -619 763 -785 140 -70 263 -110 524
-169 30 -7 55 -17 55 -23 0 -5 -7 -77 -14 -159 -22 -234 -6 -558 38 -781 26
-130 79 -323 133 -480 36 -107 159 -397 215 -509 316 -630 803 -1257 1218
-1569 130 -97 273 -181 300 -175 11 2 4 26 -30 101 -131 288 -172 505 -162
862 7 258 31 412 104 668 34 120 64 184 82 172 4 -2 11 -64 14 -137 17 -366
139 -700 321 -884 76 -77 132 -110 240 -143 126 -39 129 -33 36 67 -179 191
-242 432 -211 807 19 227 62 448 190 980 132 547 195 907 247 1416 26 248 27
295 28 769 0 587 -16 868 -74 1275 -39 273 -120 626 -191 838 -76 223 -187
462 -281 599 -60 89 -190 248 -240 294 -121 111 -322 234 -441 268 -160 46
-414 66 -482 37 -29 -12 -31 -11 -69 31 -154 171 -226 233 -361 312 -176 102
-396 176 -627 210 -129 19 -421 20 -560 1z"/>
</g>
</svg>
