<?xml version="1.0" standalone="no"?>
<!DOCTYPE svg PUBLIC "-//W3C//DTD SVG 20010904//EN"
 "http://www.w3.org/TR/2001/REC-SVG-20010904/DTD/svg10.dtd">
<svg version="1.0" xmlns="http://www.w3.org/2000/svg"
 width="1000.000000pt" height="1000.000000pt" viewBox="0 0 1000.000000 1000.000000"
 preserveAspectRatio="xMidYMid meet">

<g transform="translate(0.000000,1000.000000) scale(0.100000,-0.100000)"
fill="#000000" stroke="none">
<path d="M5000 9094 c-14 -2 -52 -9 -85 -15 -85 -15 -196 -64 -268 -117 l-62
-47 -105 3 c-124 4 -190 -11 -294 -66 -154 -80 -299 -272 -392 -517 -33 -88
-140 -338 -184 -430 -63 -131 -115 -201 -243 -329 -203 -201 -264 -282 -339
-451 -196 -436 -141 -1011 134 -1423 28 -42 84 -118 125 -169 65 -83 71 -93
55 -102 -10 -5 -137 -61 -283 -124 -335 -146 -518 -232 -548 -260 -62 -58
-293 -590 -465 -1072 -32 -88 -67 -185 -78 -215 -124 -338 -327 -944 -382
-1140 -119 -426 -145 -790 -75 -1050 44 -163 135 -272 255 -310 215 -66 420
-53 1129 72 35 6 342 13 750 17 507 5 697 10 718 19 16 7 30 12 31 12 2 0 -1
-21 -5 -48 -4 -26 -8 -53 -8 -59 -1 -10 -164 -13 -782 -13 -772 0 -781 0 -786
20 -8 28 -18 25 -42 -14 -27 -43 -27 -88 0 -143 32 -66 49 -73 180 -76 63 -1
1222 -1 2576 1 l2461 2 32 26 c70 60 71 63 190 1034 64 525 72 596 111 925 28
243 34 275 59 320 106 194 152 421 152 750 0 221 -16 355 -71 565 -165 640
-571 1306 -1031 1692 -52 44 -189 146 -305 226 -240 167 -315 234 -391 348
-128 192 -197 388 -290 818 -24 115 -56 248 -69 296 -83 295 -239 574 -398
713 -226 198 -535 320 -841 331 -61 3 -122 3 -136 0z m-61 -984 c79 -117 328
-286 536 -365 74 -28 223 -65 340 -84 125 -21 113 -9 99 -103 -7 -46 -13 -102
-13 -125 -1 -24 -3 -43 -5 -43 -2 0 -28 12 -57 28 -43 22 -69 28 -140 30 -78
4 -94 1 -149 -24 -67 -30 -128 -93 -151 -158 l-12 -33 -65 2 -64 2 -29 54
c-16 30 -45 69 -65 86 -119 105 -341 94 -442 -21 -36 -41 -72 -114 -72 -145 0
-28 -33 -27 -170 2 l-105 22 -12 84 -11 84 59 55 c33 30 99 84 147 121 114 85
172 146 223 232 53 88 83 172 99 272 7 42 16 77 19 77 3 0 21 -23 40 -50z
m-751 -576 c29 -14 61 -39 72 -54 35 -49 60 -138 60 -212 0 -37 3 -68 8 -68 4
0 65 -14 136 -30 72 -17 140 -30 152 -30 18 0 23 -8 28 -42 16 -101 101 -201
199 -235 157 -54 318 9 386 150 17 34 33 88 37 120 l6 57 53 0 52 0 6 -68 c3
-44 19 -102 42 -161 20 -51 35 -101 33 -110 -2 -12 -16 -17 -53 -19 -59 -4
-72 -13 -50 -36 18 -17 73 -15 129 7 27 10 28 13 23 56 -3 25 -20 80 -38 121
-29 67 -32 86 -33 170 0 106 10 134 66 186 48 46 90 64 161 70 67 7 150 -17
200 -57 23 -17 24 -23 16 -52 -5 -17 -12 -109 -16 -204 l-6 -172 -55 -12
c-115 -24 -218 14 -263 96 -35 63 -35 71 -1 70 32 0 33 14 3 95 -14 40 -25 56
-40 58 -29 5 -35 -19 -23 -81 10 -47 9 -53 -8 -65 -19 -13 -18 -17 20 -92 34
-67 45 -81 82 -98 67 -32 159 -45 224 -32 31 7 57 10 59 8 6 -6 -25 -199 -39
-249 -45 -150 -184 -318 -372 -447 -50 -34 -122 -45 -206 -32 -144 22 -383
119 -537 217 -56 36 -83 34 -62 -5 22 -41 219 -216 316 -280 124 -83 270 -157
341 -173 l54 -12 0 -57 c0 -125 65 -236 154 -262 22 -6 43 -13 44 -14 8 -5
-78 -175 -118 -235 -101 -149 -292 -304 -455 -369 -142 -57 -302 -52 -442 14
-206 98 -386 277 -484 481 -27 55 -49 103 -49 108 0 4 19 7 43 7 91 0 197 49
261 121 86 95 119 231 120 494 1 253 -31 444 -105 622 -48 115 -52 118 -148
114 -68 -2 -88 1 -133 22 -105 49 -199 178 -213 294 -28 223 180 399 363 307z
m867 -151 c215 -76 215 -377 1 -474 -66 -30 -150 -25 -225 12 -33 17 -73 45
-86 63 -101 132 -52 337 95 400 48 21 154 20 215 -1z m886 -43 c50 -27 106
-169 93 -237 -15 -87 -93 -183 -148 -183 -15 0 -10 8 23 36 90 77 111 186 57
297 -15 31 -36 62 -47 67 -20 11 -26 30 -8 30 6 0 19 -5 30 -10z m-1976 -1825
c68 -196 262 -430 445 -536 33 -19 60 -37 60 -40 0 -4 -101 -108 -225 -232
l-224 -225 -45 72 c-137 222 -232 500 -252 743 -8 93 14 196 49 230 22 22 116
53 152 50 14 -2 25 -18 40 -62z m1775 37 c58 -28 75 -76 73 -207 -2 -241 -92
-523 -248 -774 l-58 -93 -85 93 c-47 52 -146 155 -219 230 l-133 135 82 54
c107 69 279 240 340 340 26 41 63 112 84 158 l37 82 46 0 c25 0 62 -8 81 -18z
m-2051 -97 c-8 -30 -10 -89 -6 -163 8 -191 75 -430 177 -631 39 -78 147 -251
156 -251 2 0 111 108 241 241 130 132 245 245 254 249 10 6 30 5 50 -1 19 -6
68 -16 109 -23 l75 -12 3 -382 c1 -247 -1 -382 -8 -382 -28 0 -41 -56 -70
-311 -30 -267 -35 -309 -71 -614 -23 -197 -89 -785 -89 -792 0 -3 -30 23 -67
57 -86 79 -161 130 -191 130 -28 0 -254 -88 -430 -166 -108 -49 -124 -54 -137
-40 -8 8 -41 19 -73 25 -31 6 -181 41 -332 79 l-275 67 -6 325 c-9 413 -36
697 -100 1011 -42 209 -130 503 -160 534 -6 5 -13 5 -21 -3 -9 -9 0 -49 40
-174 57 -183 82 -281 112 -448 51 -290 78 -585 87 -962 7 -301 12 -280 -67
-258 -28 8 -38 18 -53 53 -57 141 -274 316 -479 389 -94 33 -118 35 -118 10 0
-14 15 -23 61 -36 71 -19 181 -73 259 -126 89 -61 240 -230 240 -268 0 -5 -33
-3 -72 4 -40 7 -139 18 -219 24 -156 12 -258 6 -426 -25 -81 -15 -93 -20 -93
-38 0 -22 0 -22 159 7 250 46 456 27 951 -89 102 -23 204 -48 228 -54 l43 -12
-47 -38 c-230 -191 -381 -619 -320 -909 7 -35 10 -64 7 -66 -3 -2 -35 -7 -71
-11 -36 -4 -173 -25 -305 -46 -503 -83 -725 -88 -877 -21 -168 74 -249 301
-235 661 14 358 90 647 429 1611 309 881 529 1399 618 1455 137 86 1105 489
1128 470 2 -1 -2 -24 -9 -50z m2453 -61 c293 -116 617 -254 763 -325 l107 -52
108 -221 c97 -199 141 -299 245 -563 18 -45 30 -84 27 -87 -3 -4 -126 -6 -274
-6 l-268 0 0 24 c0 46 72 370 95 427 8 22 -20 32 -38 15 -13 -14 -49 -153 -90
-351 l-22 -110 -998 -3 -997 -2 -2 270 c-4 500 -7 455 22 458 14 1 66 12 117
23 l91 21 154 -158 c164 -169 246 -257 291 -314 l27 -35 31 35 c78 91 197 322
254 495 76 228 99 445 59 549 -7 17 -4 18 24 13 17 -3 140 -50 274 -103z
m2211 -1314 c14 -11 29 -29 32 -40 3 -10 -10 -153 -29 -317 -20 -164 -47 -397
-61 -518 -36 -311 -129 -1078 -170 -1415 -20 -157 -40 -323 -45 -370 -14 -120
-19 -139 -40 -150 -12 -7 -647 -10 -1816 -10 l-1797 0 7 78 c4 42 16 138 26
212 10 74 33 263 50 420 34 311 98 879 160 1420 22 190 47 410 56 490 17 153
28 183 75 207 19 10 405 13 1775 13 1744 0 1751 0 1777 -20z m-4040 -1593 c25
-18 78 -64 118 -102 l72 -70 -12 -86 c-6 -47 -11 -100 -11 -117 0 -17 -3 -33
-8 -36 -4 -2 -33 28 -64 67 -83 105 -151 169 -171 161 -27 -10 -20 -27 29 -74
26 -25 80 -87 122 -139 l75 -94 -17 -151 c-9 -83 -18 -167 -19 -186 -3 -33 -5
-30 -48 60 -76 158 -142 257 -306 459 -1 2 -12 -4 -23 -14 -21 -19 -21 -19 19
-59 134 -140 314 -462 327 -583 4 -42 1 -52 -23 -80 -48 -54 -60 -49 -121 52
-100 165 -340 465 -371 465 -33 0 -18 -35 43 -102 78 -85 269 -344 299 -405
11 -24 18 -46 14 -49 -4 -4 -32 -9 -62 -12 -75 -6 -120 22 -237 150 -51 55
-112 122 -136 147 l-42 46 -22 -30 c-70 -97 -163 -164 -282 -201 -57 -18 -58
-18 -72 1 -43 58 -42 209 1 361 35 120 126 305 173 350 24 24 91 61 192 107
212 96 460 195 491 196 14 1 46 -14 72 -32z m-739 -135 l80 -18 -57 -32 c-122
-69 -239 -299 -283 -556 -19 -116 -11 -191 30 -283 15 -31 24 -58 22 -60 -3
-3 -71 -6 -152 -6 l-147 -2 -13 55 c-18 74 -17 241 0 332 43 222 196 482 330
558 59 34 82 36 190 12z m4476 -1142 c0 -21 -40 -89 -62 -104 -20 -14 -275
-16 -2578 -16 l-2557 0 -21 23 c-22 23 -42 68 -42 93 0 12 352 14 2630 14
1814 0 2630 -3 2630 -10z"/>
<path d="M4875 7595 c-69 -18 -128 -51 -169 -94 -26 -27 -28 -31 -10 -31 11 0
64 11 118 25 113 29 187 31 271 10 65 -17 75 -13 75 38 0 23 -7 31 -37 44 -53
22 -176 26 -248 8z"/>
<path d="M5605 7605 c-5 -1 -36 -8 -67 -15 -70 -16 -95 -38 -78 -70 10 -18 18
-21 43 -16 18 4 77 9 132 13 78 4 113 2 157 -11 68 -19 68 -19 68 -2 0 8 -15
27 -34 44 -43 37 -175 72 -221 57z"/>
<path d="M4005 7416 c-40 -17 -85 -64 -85 -87 0 -28 18 -23 61 16 44 39 97 47
137 19 32 -22 27 -34 -13 -34 -54 0 -101 -24 -121 -62 -37 -71 -13 -159 56
-205 40 -28 130 -32 150 -8 18 22 6 30 -40 26 -45 -3 -90 18 -119 55 -32 40
-27 80 14 121 32 32 39 35 80 31 24 -3 48 -1 54 5 28 28 -3 93 -59 122 -35 18
-75 19 -115 1z"/>
<path d="M5635 7246 c-30 -45 1 -135 42 -122 28 9 43 53 35 101 -6 34 -11 40
-34 43 -19 2 -31 -4 -43 -22z"/>
<path d="M5443 6609 c-65 -57 -151 -58 -236 -3 -53 35 -91 19 -51 -21 50 -49
157 -76 230 -56 55 15 108 52 112 78 5 32 -21 33 -55 2z"/>
<path d="M4970 7251 c-26 -49 -2 -161 34 -161 43 0 64 110 30 158 -19 27 -50
29 -64 3z"/>
<path d="M6490 3012 c-245 -65 -325 -341 -149 -512 59 -57 135 -84 239 -84 77
-1 92 2 153 32 182 90 231 304 107 461 -45 57 -88 82 -177 105 -75 20 -91 19
-173 -2z m225 -59 c154 -81 193 -286 77 -406 -59 -61 -125 -91 -202 -91 -162
0 -282 96 -297 239 -11 110 60 221 170 264 69 28 193 25 252 -6z"/>
</g>
</svg>
