<?xml version="1.0" standalone="no"?>
<!DOCTYPE svg PUBLIC "-//W3C//DTD SVG 20010904//EN"
 "http://www.w3.org/TR/2001/REC-SVG-20010904/DTD/svg10.dtd">
<svg version="1.0" xmlns="http://www.w3.org/2000/svg"
 width="1000.000000pt" height="1000.000000pt" viewBox="0 0 1000.000000 1000.000000"
 preserveAspectRatio="xMidYMid meet">

<g transform="translate(0.000000,1000.000000) scale(0.100000,-0.100000)"
fill="#000000" stroke="none">
<path d="M4835 9965 c-440 -63 -839 -237 -1155 -504 -154 -129 -187 -162 -280
-271 -266 -311 -409 -558 -711 -1225 -298 -659 -405 -854 -784 -1430 -325
-492 -430 -688 -525 -968 -67 -198 -75 -255 -75 -502 0 -193 3 -233 23 -323
34 -153 66 -242 142 -397 85 -171 183 -321 375 -570 81 -104 173 -228 205
-275 152 -226 218 -430 227 -706 8 -236 -12 -357 -135 -799 -60 -215 -67 -265
-67 -470 0 -243 24 -363 107 -543 28 -61 48 -95 151 -254 55 -86 84 -103 72
-42 -58 313 -63 532 -14 721 37 145 151 345 335 588 33 44 96 127 140 185 268
354 327 743 179 1168 -71 203 -142 335 -360 666 -166 252 -224 360 -262 486
-25 86 -28 110 -28 245 1 137 3 157 29 235 124 375 401 623 1151 1030 111 61
450 267 630 384 439 285 795 565 1086 855 391 391 657 765 929 1306 90 178
121 231 137 233 26 4 151 -95 214 -169 194 -229 338 -573 408 -979 45 -258 55
-384 55 -690 0 -302 -6 -386 -55 -725 -65 -460 -203 -919 -391 -1303 -137
-281 -274 -432 -456 -503 -88 -34 -318 -39 -513 -9 -338 51 -522 107 -749 227
-276 146 -485 318 -675 553 -173 214 -281 393 -394 655 -42 97 -60 129 -68
122 -4 -5 78 -247 123 -360 79 -198 217 -434 351 -599 193 -238 488 -450 787
-565 90 -34 420 -123 460 -123 49 -1 49 -5 31 -190 -33 -325 -6 -738 68 -1045
185 -767 598 -1554 1181 -2255 131 -157 365 -398 488 -503 183 -156 418 -307
478 -307 11 0 20 2 20 4 0 2 -23 52 -50 111 -68 144 -125 313 -158 465 -26
122 -27 133 -26 460 0 322 1 341 27 485 32 175 55 266 103 425 55 178 94 198
94 49 0 -180 39 -419 96 -597 30 -92 127 -293 183 -378 51 -77 170 -190 238
-227 61 -32 203 -77 246 -77 29 0 28 2 -44 77 -41 43 -86 94 -101 113 -79 107
-142 284 -166 470 -13 108 -14 150 -3 313 20 305 68 561 245 1287 164 678 266
1351 297 1975 14 278 5 1055 -16 1335 -40 553 -103 943 -224 1395 -178 666
-489 1166 -882 1422 -199 129 -388 190 -650 208 -84 6 -144 1 -230 -20 -23 -6
-35 4 -117 97 -259 296 -629 482 -1102 553 -124 19 -514 19 -645 0z"/>
</g>
</svg>
