<?xml version="1.0" standalone="no"?>
<!DOCTYPE svg PUBLIC "-//W3C//DTD SVG 20010904//EN"
 "http://www.w3.org/TR/2001/REC-SVG-20010904/DTD/svg10.dtd">
<svg version="1.0" xmlns="http://www.w3.org/2000/svg"
 width="1000.000000pt" height="1000.000000pt" viewBox="0 0 1000.000000 1000.000000"
 preserveAspectRatio="xMidYMid meet">

<g transform="translate(0.000000,1000.000000) scale(0.100000,-0.100000)"
fill="#000000" stroke="none">
<path d="M4893 9849 c-129 -27 -231 -75 -346 -163 l-38 -29 -157 -1 c-155 -1
-158 -2 -237 -35 -108 -47 -203 -110 -268 -181 -100 -108 -214 -301 -281 -475
-24 -61 -54 -135 -114 -280 -53 -125 -164 -349 -202 -405 -24 -36 -119 -141
-211 -235 -236 -240 -271 -286 -358 -462 -238 -481 -213 -1155 61 -1632 58
-102 190 -287 260 -365 28 -32 47 -61 42 -66 -5 -4 -121 -56 -259 -115 -493
-212 -688 -303 -737 -344 -32 -27 -57 -68 -114 -185 -82 -171 -181 -396 -247
-566 -25 -63 -61 -155 -80 -205 -20 -49 -50 -128 -67 -175 -365 -1006 -552
-1564 -640 -1915 -70 -279 -85 -396 -85 -685 0 -230 2 -265 23 -358 61 -270
179 -397 414 -443 214 -41 592 -12 1116 87 196 37 365 43 1107 44 369 1 688 5
710 9 22 5 52 12 68 16 l27 7 -6 -58 c-4 -33 -11 -65 -17 -72 -7 -9 -185 -12
-827 -12 -449 0 -864 3 -923 6 -91 6 -106 9 -110 25 -8 30 -23 22 -52 -27 -22
-38 -26 -54 -21 -86 9 -54 39 -110 76 -142 l32 -26 3052 0 3052 0 41 27 c23
14 51 43 62 63 24 43 53 181 75 365 9 72 23 177 31 235 8 58 23 186 35 285 11
99 27 227 35 285 8 58 26 200 40 315 14 116 30 248 35 295 6 47 17 144 25 215
8 72 28 238 44 370 l30 240 45 85 c59 110 102 242 133 410 21 115 26 175 30
400 5 252 4 273 -22 425 -42 256 -112 507 -208 745 -59 149 -214 471 -284 590
-173 298 -418 616 -634 825 -173 167 -311 274 -631 490 -229 155 -345 284
-458 513 -93 188 -160 403 -235 760 -78 364 -109 474 -193 676 -148 356 -333
575 -629 744 -304 174 -719 252 -1010 191z m17 -1130 c39 -63 174 -187 285
-261 180 -119 378 -208 555 -249 99 -23 271 -57 315 -61 35 -3 34 6 14 -175
-9 -84 -17 -123 -25 -123 -7 0 -28 9 -46 20 -54 31 -155 53 -223 47 -138 -11
-242 -82 -305 -207 -23 -45 -35 -60 -46 -56 -9 3 -41 6 -72 6 l-57 0 -34 65
c-51 99 -116 148 -237 180 -74 19 -111 19 -188 -1 -113 -29 -182 -85 -232
-189 -19 -38 -34 -78 -34 -88 0 -9 -6 -20 -14 -23 -12 -5 -245 36 -296 51 -12
4 -19 31 -27 102 l-12 98 52 52 c29 29 113 99 187 156 78 60 159 131 191 170
109 130 181 296 204 475 4 28 10 52 13 52 4 0 18 -19 32 -41z m-885 -699 c22
-10 57 -34 77 -55 59 -59 105 -204 93 -296 -7 -46 -6 -47 27 -57 18 -5 104
-25 190 -43 l156 -33 7 -43 c9 -60 59 -151 108 -197 23 -22 71 -53 107 -70 57
-27 76 -30 155 -31 82 0 97 3 155 32 127 62 199 168 216 311 l7 62 62 0 62 0
7 -76 c4 -41 11 -85 16 -97 46 -115 81 -220 77 -231 -4 -9 -27 -15 -66 -18
-68 -5 -80 -11 -64 -36 9 -14 23 -16 74 -14 144 8 145 19 46 282 -28 74 -29
237 -3 293 26 53 107 122 167 142 99 33 199 21 297 -36 53 -30 54 -31 47 -67
-11 -57 -25 -258 -25 -360 0 -91 0 -93 -27 -104 -16 -6 -66 -12 -113 -12 -94
-1 -162 19 -198 57 -25 27 -81 134 -74 142 3 3 18 5 33 5 15 0 30 3 33 8 2 4
-6 32 -20 62 -13 30 -23 65 -24 76 0 30 -20 44 -49 33 -22 -9 -23 -13 -17 -67
3 -31 9 -67 12 -79 4 -16 1 -23 -15 -28 -29 -9 -27 -18 22 -109 47 -90 66
-107 152 -137 67 -24 200 -29 247 -11 15 6 29 8 31 4 9 -14 -22 -223 -43 -294
-28 -91 -55 -146 -113 -224 -98 -134 -297 -307 -388 -339 -58 -21 -167 -19
-258 5 -189 48 -409 142 -560 240 -58 38 -91 45 -91 21 0 -20 119 -147 208
-222 199 -166 467 -319 604 -346 18 -3 36 -11 40 -17 4 -6 8 -41 8 -79 0 -82
26 -160 71 -216 33 -42 99 -81 137 -81 12 0 22 -6 22 -13 0 -20 -95 -212 -135
-272 -137 -206 -385 -397 -605 -467 -100 -31 -273 -31 -366 0 -144 48 -285
136 -414 259 -137 130 -239 277 -299 431 l-21 52 21 0 c11 0 55 7 97 16 236
48 352 209 382 529 34 361 -29 763 -156 1005 l-35 68 -98 -5 c-91 -5 -102 -4
-156 21 -81 37 -136 85 -188 164 -53 80 -65 114 -73 202 -24 258 206 455 421
360z m1047 -191 c76 -29 122 -69 155 -137 23 -47 28 -69 27 -132 0 -97 -28
-162 -95 -225 -67 -63 -123 -86 -207 -86 -191 -1 -332 141 -319 321 15 225
218 344 439 259z m1080 -76 c31 -34 70 -133 75 -192 12 -126 -87 -281 -178
-281 -21 0 -17 6 29 46 108 94 133 203 78 337 -17 41 -40 76 -58 91 -38 29
-30 53 10 32 15 -8 35 -22 44 -33z m-2405 -2080 c60 -173 127 -295 231 -418
81 -97 217 -215 314 -274 43 -25 77 -51 78 -56 0 -19 -530 -540 -539 -530 -22
23 -128 207 -164 285 -181 391 -241 830 -128 944 18 17 53 35 92 46 82 24 108
24 116 3z m2130 -12 c53 -25 69 -50 84 -135 31 -181 -31 -500 -149 -775 -55
-127 -192 -361 -211 -361 -4 0 -50 46 -102 103 -51 56 -167 177 -257 268
l-163 166 68 41 c37 22 102 67 143 100 166 132 277 273 373 472 34 69 66 128
71 132 20 14 101 8 143 -11z m-2434 -98 c-4 -21 -7 -108 -7 -193 1 -141 5
-168 37 -300 39 -157 84 -290 141 -414 46 -100 146 -268 191 -321 l33 -40 73
80 c99 110 507 515 518 515 5 0 47 -9 93 -19 46 -11 104 -22 131 -26 l47 -6 0
-454 c0 -386 -2 -454 -14 -458 -32 -12 -45 -68 -70 -297 -26 -236 -31 -273
-86 -740 -17 -140 -37 -313 -44 -385 -31 -285 -69 -610 -72 -614 -2 -2 -36 27
-76 64 -83 77 -137 118 -190 146 l-37 19 -143 -54 c-162 -61 -235 -92 -395
-165 -115 -52 -133 -58 -133 -42 0 14 -69 38 -150 51 -64 10 -518 118 -634
151 l-38 10 7 117 c7 121 -8 575 -25 767 -41 454 -111 833 -212 1145 -47 146
-68 190 -89 190 -28 0 -24 -33 15 -147 161 -469 240 -1008 253 -1729 l6 -332
-49 9 c-75 14 -81 18 -87 47 -9 44 -85 152 -161 228 -111 111 -263 204 -429
263 -98 34 -122 38 -130 18 -8 -21 5 -34 43 -42 48 -10 166 -58 226 -91 139
-77 285 -205 357 -314 59 -87 55 -90 -78 -65 -44 9 -153 20 -242 26 -182 11
-299 4 -485 -32 -113 -21 -118 -23 -118 -47 0 -28 -16 -29 175 9 99 19 152 23
305 23 200 0 301 -10 510 -55 381 -80 635 -143 635 -157 0 -6 -19 -25 -42 -44
-147 -117 -286 -359 -360 -625 -25 -89 -28 -113 -28 -268 1 -102 5 -186 13
-210 6 -22 8 -43 4 -47 -5 -5 -62 -15 -128 -24 -65 -8 -173 -24 -239 -35 -285
-48 -370 -60 -545 -79 -223 -24 -272 -25 -397 -4 -199 32 -290 88 -362 224
-129 245 -133 705 -9 1205 69 279 233 788 458 1415 23 63 65 183 95 265 212
596 391 1028 523 1265 l48 85 134 67 c233 115 909 402 1120 474 124 42 123 42
113 -3z m2645 11 c230 -80 952 -382 1172 -492 l135 -67 53 -105 c119 -239 205
-428 295 -650 52 -129 98 -245 102 -257 l6 -23 -330 0 -330 0 5 28 c3 15 11
61 18 102 21 117 62 290 84 355 22 64 21 75 -7 75 -36 0 -43 -22 -111 -335
l-47 -220 -1184 -5 c-651 -3 -1185 -5 -1185 -5 -1 0 -3 194 -5 430 l-4 430
105 21 c58 11 119 25 137 31 l32 12 199 -204 c110 -112 237 -247 283 -300 l84
-96 38 42 c73 82 199 312 270 494 66 169 109 353 123 530 6 72 -2 142 -22 213
-8 28 -8 28 84 -4z m2908 -1678 c19 -19 34 -44 34 -57 0 -13 -9 -95 -20 -181
-11 -86 -31 -259 -45 -385 -14 -125 -34 -302 -45 -393 -64 -533 -81 -670 -85
-710 -9 -81 -65 -542 -85 -700 -11 -85 -29 -234 -40 -330 -11 -96 -25 -204
-30 -240 -6 -36 -17 -121 -25 -189 -9 -85 -19 -129 -30 -140 -14 -15 -218 -16
-2160 -19 l-2145 -2 0 27 c0 16 9 98 20 183 30 222 80 653 105 890 8 80 33
303 55 495 22 193 47 413 56 490 8 77 21 196 29 265 21 172 62 525 89 762 25
214 29 227 91 254 25 11 407 13 2113 14 l2084 0 34 -34z m-4695 -1982 c53 -49
99 -94 102 -101 3 -6 -1 -53 -8 -105 -8 -51 -15 -114 -15 -140 0 -27 -4 -48
-10 -48 -5 0 -27 25 -50 54 -22 30 -77 94 -123 142 -70 73 -86 86 -105 80 -12
-4 -22 -12 -22 -18 0 -5 36 -49 81 -96 45 -48 111 -125 147 -172 l65 -84 -16
-126 c-9 -69 -20 -164 -23 -212 -4 -49 -10 -88 -14 -88 -4 0 -24 39 -45 88
-37 87 -105 208 -175 312 -43 63 -188 244 -200 248 -5 2 -15 -7 -24 -19 -14
-21 -12 -25 34 -78 105 -122 193 -252 264 -391 72 -141 126 -280 126 -324 -1
-26 -68 -104 -94 -108 -14 -2 -33 21 -80 97 -106 171 -257 372 -369 491 -72
76 -72 76 -90 56 -18 -20 -18 -22 55 -100 74 -78 160 -189 274 -352 137 -194
137 -210 8 -210 -85 0 -162 62 -360 292 -46 53 -89 100 -96 104 -6 4 -24 -7
-41 -27 -73 -85 -135 -143 -187 -173 -64 -39 -179 -79 -212 -74 -51 7 -73 175
-44 338 30 169 142 421 228 515 27 30 55 55 60 55 6 0 82 34 170 75 168 80
378 167 513 215 l80 29 50 -28 c27 -15 93 -68 146 -117z m-1008 -61 c53 -10
96 -21 95 -25 -2 -4 -28 -20 -58 -35 -73 -39 -138 -120 -205 -258 -146 -301
-180 -570 -92 -742 17 -34 28 -65 24 -69 -4 -4 -85 -9 -181 -12 l-174 -5 -17
74 c-21 92 -22 272 -1 384 61 331 316 704 481 705 17 0 74 -8 128 -17z m5327
-1363 c0 -31 -36 -95 -66 -119 l-27 -21 -3039 0 -3039 0 -26 28 c-25 27 -37
51 -49 97 -4 17 -1 24 13 28 10 3 1416 5 3126 6 l3107 1 0 -20z"/>
<path d="M4840 8081 c-80 -22 -144 -58 -189 -105 l-35 -36 33 0 c17 0 73 12
124 27 113 32 250 36 337 10 52 -16 56 -16 67 0 7 9 13 31 13 49 0 28 -5 34
-42 50 -64 26 -224 29 -308 5z"/>
<path d="M5675 8090 c-88 -19 -119 -34 -129 -63 -8 -21 -6 -31 5 -42 12 -13
24 -13 74 -4 101 19 272 17 333 -5 42 -14 56 -16 65 -6 18 18 -64 87 -127 105
-64 19 -169 27 -221 15z"/>
<path d="M3810 7870 c-40 -21 -87 -68 -90 -90 -7 -52 10 -52 59 1 33 36 45 42
89 47 38 3 59 0 77 -12 39 -26 32 -46 -15 -46 -92 0 -150 -54 -158 -146 -6
-76 32 -144 101 -179 78 -38 167 -30 167 15 0 17 -5 18 -48 13 -100 -11 -192
82 -161 164 24 64 104 107 155 84 18 -8 27 -7 39 5 21 21 19 45 -8 85 -51 75
-133 99 -207 59z"/>
<path d="M5767 7687 c-38 -27 -25 -147 18 -163 29 -12 65 34 65 82 0 84 -34
117 -83 81z"/>
<path d="M5535 6920 c-29 -31 -100 -60 -146 -60 -36 0 -106 26 -152 56 -70 46
-97 -3 -28 -50 110 -76 277 -71 363 11 33 31 35 48 9 62 -14 8 -24 4 -46 -19z"/>
<path d="M4964 7675 c-22 -34 -16 -136 11 -165 46 -51 90 -3 83 90 -7 91 -57
131 -94 75z"/>
<path d="M6830 2648 c-103 -13 -169 -45 -241 -118 -58 -57 -70 -75 -88 -134
-12 -37 -21 -85 -21 -105 1 -111 63 -235 147 -291 85 -55 148 -74 253 -75 88
0 101 3 168 34 86 40 151 105 190 189 23 48 27 71 27 142 0 76 -4 93 -32 151
-73 147 -233 230 -403 207z m206 -81 c65 -33 137 -113 158 -174 22 -65 20
-167 -4 -221 -32 -70 -59 -102 -122 -143 -80 -51 -149 -66 -240 -51 -181 31
-291 147 -292 307 0 120 62 218 176 276 63 33 94 38 188 35 69 -2 95 -8 136
-29z"/>
</g>
</svg>
